<?xml version="1.0" standalone="no"?>
<!DOCTYPE svg PUBLIC "-//W3C//DTD SVG 20010904//EN"
 "http://www.w3.org/TR/2001/REC-SVG-20010904/DTD/svg10.dtd">
<svg version="1.0" xmlns="http://www.w3.org/2000/svg"
 width="470.000000pt" height="622.000000pt" viewBox="0 0 470.000000 622.000000"
 preserveAspectRatio="xMidYMid meet">

<g transform="translate(0.000000,622.000000) scale(0.100000,-0.100000)"
fill="#000000" stroke="none">
<path d="M2875 4591 c-113 -41 -226 -110 -355 -216 -246 -204 -392 -462 -484
-855 -50 -212 -60 -427 -22 -484 32 -50 122 -21 202 65 49 52 244 301 244 311
0 39 -143 -74 -181 -143 l-12 -24 -9 30 c-25 88 64 388 177 603 119 225 284
410 429 482 117 59 140 34 114 -119 -47 -274 -200 -695 -405 -1111 l-105 -215
-112 -82 c-306 -226 -503 -455 -577 -672 -29 -83 -25 -142 10 -180 45 -48 85
-43 159 18 135 113 311 352 613 833 l46 73 186 105 187 105 0 43 c0 23 -3 42
-7 42 -3 0 -66 -32 -140 -70 -73 -39 -133 -68 -133 -65 0 3 43 91 96 197 121
243 174 376 263 663 119 387 134 502 77 599 -47 80 -151 107 -261 67z"/>
</g>
</svg>
